<svg xmlns="http://www.w3.org/2000/svg" viewBox="0 0 100 100"><path d="m50 964.862-31.25 20.833h62.5zm-27.083 25a4.158 4.158 0 0 0-4.167 4.167v29.166l-7.292 12.5c-.618 1.06-1.041 1.487-1.041 2.084 0 2.083 2.632 2.083 4.166 2.083h70.834c1.479 0 4.166 0 4.166-2.083 0-.61-.36-.916-1.041-2.084l-7.292-12.5V994.03a4.158 4.158 0 0 0-4.167-4.167zm8.333 8.333c2.308 0 3.787 1.89 4.167 4.167v25h-8.334v-25a4.158 4.158 0 0 1 4.167-4.167zm18.75 0c2.308 0 4.203 1.86 4.167 4.167v25h-8.334v-25A4.158 4.158 0 0 1 50 998.195zm18.75 0a4.158 4.158 0 0 1 4.167 4.167v25h-8.334v-25a4.158 4.158 0 0 1 4.167-4.167z" style="marker:none" transform="translate(0 -952.362)" color="#000000" fill="#d16f0c" fill-opacity="1" fill-rule="nonzero" stroke="none" stroke-width="1" visibility="visible" display="inline" overflow="visible" enable-background="accumulate" class="fill-000000"></path></svg>